# xmcd CD database file
#
# Track frame offsets:
#	150
#	26222
#	55925
#	74052
#	110732
#	145717
#	192297
#	223720
#	241897
#	269515
#
# Disc length: 3668 seconds
#
# Revision: 0
# Processed by: cddbd v1.5.1PL0 Copyright (c) Steve Scherf et al.
# Submitted via: CDex 1.51
#
DISCID=a10e520a
DTITLE=Eric Person - More Tales To Tell
DYEAR=1996
DGENRE=Jazz
TTITLE0=Undercurrents
TTITLE1=Mr. More or Less
TTITLE2=Little Church
TTITLE3=On the Verge
TTITLE4=Knee Deep (In the Gene Pool)
TTITLE5=Survival Instincts
TTITLE6=Issues (Yours, Not Mine)
TTITLE7=If You Should Go Before Me
TTITLE8=Friends Again
TTITLE9=Perfection
EXTD=YEAR: 1996
EXTT0=
EXTT1=
EXTT2=
EXTT3=
EXTT4=
EXTT5=
EXTT6=
EXTT7=
EXTT8=
EXTT9=
PLAYORDER=
